# xmcd
#
# Track frame offsets:
#	150
#	18529
#	28628
#	42458
#	55780
#	66874
#	81759
#	96148
#	113453
#	128138
#	145302
#	166157
#	185496
#	207228
#	223233
#	238230
#	255002
#	277471
#	297565
#
# Disc length: 4211 seconds
#
# Revision: 1
# Processed by: cddbd v1.5.1PL0 Copyright (c) Steve Scherf et al.
# Submitted via: audiograbber 1.83.01
#
DISCID=20107113
DTITLE=Bee Gees - The Greatest Hits
DYEAR=1900
DGENRE=
TTITLE0=How Deep Is Your Love
TTITLE1=New York Mining Disaster 1941
TTITLE2=To Love SomeBody
TTITLE3=Holiday
TTITLE4=Massachusetts
TTITLE5=World
TTITLE6=I Started a Joke
TTITLE7=Lonely Days
TTITLE8=Run To Me
TTITLE9=Jive Talkin
TTITLE10=Nights On BroadWay
TTITLE11=You Should Be Dancing
TTITLE12=Stayin' Alive
TTITLE13=Night Fever
TTITLE14=More Than a Woman
TTITLE15=Emotion
TTITLE16=Too Much Heaven
TTITLE17=HeartBreaker
TTITLE18=You Win Again
EXTD=
EXTT0=
EXTT1=
EXTT2=
EXTT3=
EXTT4=
EXTT5=
EXTT6=
EXTT7=
EXTT8=
EXTT9=
EXTT10=
EXTT11=
EXTT12=
EXTT13=
EXTT14=
EXTT15=
EXTT16=
EXTT17=
EXTT18=
PLAYORDER=
